<mxfile host="app.diagrams.net" modified="2023-08-22T00:22:28.656Z" agent="Mozilla/5.0 (Windows NT 10.0; Win64; x64) AppleWebKit/537.36 (KHTML, like Gecko) Chrome/115.0.0.0 Safari/537.36 Edg/115.0.1901.203" version="21.6.8" etag="82ztlWUfcY99jXIJnFV9" type="github">
  <diagram name="PÃ¡gina-1" id="_puK4a_KdndnvcKOiJWM">
    <mxGraphModel>
      <root>
        <mxCell id="0" />
        <mxCell id="1" parent="0" />
      </root>
    </mxGraphModel>
  </diagram>
</mxfile>
